<mxfile host="65bd71144e">
    <diagram id="BaOlEAe8vfvkfSla5boV" name="Page-1">
        <mxGraphModel dx="1807" dy="2021" grid="1" gridSize="10" guides="1" tooltips="1" connect="1" arrows="1" fold="1" page="1" pageScale="1" pageWidth="850" pageHeight="1100" math="0" shadow="0">
            <root>
                <mxCell id="0"/>
                <mxCell id="1" parent="0"/>
                <mxCell id="2" value="interface Visitor" style="rounded=1;whiteSpace=wrap;html=1;arcSize=8;fontSize=20;verticalAlign=top;strokeColor=#000000;" vertex="1" parent="1">
                    <mxGeometry x="320" y="20" width="160" height="100" as="geometry"/>
                </mxCell>
                <mxCell id="3" value="visit(element)" style="rounded=1;whiteSpace=wrap;html=1;arcSize=8;fontSize=20;verticalAlign=top;strokeColor=#000000;" vertex="1" parent="1">
                    <mxGeometry x="330" y="70" width="140" height="40" as="geometry"/>
                </mxCell>
                <mxCell id="6" style="edgeStyle=orthogonalEdgeStyle;html=1;exitX=0.5;exitY=0;exitDx=0;exitDy=0;entryX=0.5;entryY=1;entryDx=0;entryDy=0;fontSize=20;endArrow=block;endFill=0;endSize=15;" edge="1" parent="1" source="4" target="2">
                    <mxGeometry relative="1" as="geometry"/>
                </mxCell>
                <mxCell id="4" value="class Visitor1" style="rounded=1;whiteSpace=wrap;html=1;arcSize=8;fontSize=20;verticalAlign=top;strokeColor=#000000;" vertex="1" parent="1">
                    <mxGeometry x="140" y="220" width="160" height="100" as="geometry"/>
                </mxCell>
                <mxCell id="5" value="visit(Element)" style="rounded=1;whiteSpace=wrap;html=1;arcSize=8;fontSize=20;verticalAlign=top;strokeColor=#000000;" vertex="1" parent="1">
                    <mxGeometry x="150" y="270" width="140" height="40" as="geometry"/>
                </mxCell>
                <mxCell id="9" style="edgeStyle=orthogonalEdgeStyle;html=1;exitX=0.5;exitY=0;exitDx=0;exitDy=0;entryX=0.5;entryY=1;entryDx=0;entryDy=0;fontSize=20;endArrow=block;endFill=0;endSize=15;" edge="1" parent="1" source="7" target="2">
                    <mxGeometry relative="1" as="geometry"/>
                </mxCell>
                <mxCell id="7" value="class Visitor2" style="rounded=1;whiteSpace=wrap;html=1;arcSize=8;fontSize=20;verticalAlign=top;strokeColor=#000000;" vertex="1" parent="1">
                    <mxGeometry x="320" y="220" width="160" height="200" as="geometry"/>
                </mxCell>
                <mxCell id="8" value="visit(Element1)" style="rounded=1;whiteSpace=wrap;html=1;arcSize=8;fontSize=20;verticalAlign=top;strokeColor=#000000;" vertex="1" parent="1">
                    <mxGeometry x="330" y="270" width="140" height="40" as="geometry"/>
                </mxCell>
                <mxCell id="11" style="edgeStyle=orthogonalEdgeStyle;html=1;exitX=0.5;exitY=0;exitDx=0;exitDy=0;entryX=0.5;entryY=1;entryDx=0;entryDy=0;fontSize=50;endArrow=block;endFill=0;endSize=15;" edge="1" parent="1" source="10" target="2">
                    <mxGeometry relative="1" as="geometry">
                        <Array as="points">
                            <mxPoint x="550" y="170"/>
                            <mxPoint x="400" y="170"/>
                        </Array>
                    </mxGeometry>
                </mxCell>
                <mxCell id="10" value="..." style="text;html=1;strokeColor=none;fillColor=none;align=center;verticalAlign=bottom;whiteSpace=wrap;rounded=0;fontSize=50;" vertex="1" parent="1">
                    <mxGeometry x="520" y="260" width="60" height="35" as="geometry"/>
                </mxCell>
                <mxCell id="12" value="interface Element" style="rounded=1;whiteSpace=wrap;html=1;arcSize=8;fontSize=20;verticalAlign=top;strokeColor=#000000;" vertex="1" parent="1">
                    <mxGeometry x="850" y="20" width="160" height="100" as="geometry"/>
                </mxCell>
                <mxCell id="13" value="accept(Visitor)" style="rounded=1;whiteSpace=wrap;html=1;arcSize=8;fontSize=20;verticalAlign=top;strokeColor=#000000;" vertex="1" parent="1">
                    <mxGeometry x="860" y="70" width="140" height="40" as="geometry"/>
                </mxCell>
                <mxCell id="24" style="edgeStyle=orthogonalEdgeStyle;html=1;exitX=0.5;exitY=0;exitDx=0;exitDy=0;entryX=0.5;entryY=1;entryDx=0;entryDy=0;fontSize=50;endArrow=block;endFill=0;endSize=15;" edge="1" parent="1" source="14" target="12">
                    <mxGeometry relative="1" as="geometry"/>
                </mxCell>
                <mxCell id="14" value="class Element1" style="rounded=1;whiteSpace=wrap;html=1;arcSize=8;fontSize=20;verticalAlign=top;strokeColor=#000000;" vertex="1" parent="1">
                    <mxGeometry x="670" y="220" width="160" height="100" as="geometry"/>
                </mxCell>
                <mxCell id="15" value="accept(Visitor)" style="rounded=1;whiteSpace=wrap;html=1;arcSize=8;fontSize=20;verticalAlign=top;strokeColor=#000000;" vertex="1" parent="1">
                    <mxGeometry x="680" y="270" width="140" height="40" as="geometry"/>
                </mxCell>
                <mxCell id="25" style="edgeStyle=orthogonalEdgeStyle;html=1;exitX=0.5;exitY=0;exitDx=0;exitDy=0;entryX=0.5;entryY=1;entryDx=0;entryDy=0;fontSize=50;endArrow=block;endFill=0;endSize=15;" edge="1" parent="1" source="16" target="12">
                    <mxGeometry relative="1" as="geometry"/>
                </mxCell>
                <mxCell id="16" value="class Element2" style="rounded=1;whiteSpace=wrap;html=1;arcSize=8;fontSize=20;verticalAlign=top;strokeColor=#000000;" vertex="1" parent="1">
                    <mxGeometry x="850" y="220" width="160" height="100" as="geometry"/>
                </mxCell>
                <mxCell id="17" value="accept(Visitor)" style="rounded=1;whiteSpace=wrap;html=1;arcSize=8;fontSize=20;verticalAlign=top;strokeColor=#000000;" vertex="1" parent="1">
                    <mxGeometry x="860" y="270" width="140" height="40" as="geometry"/>
                </mxCell>
                <mxCell id="20" value="visit(Element2)" style="rounded=1;whiteSpace=wrap;html=1;arcSize=8;fontSize=20;verticalAlign=top;strokeColor=#000000;" vertex="1" parent="1">
                    <mxGeometry x="330" y="320" width="140" height="40" as="geometry"/>
                </mxCell>
                <mxCell id="26" style="edgeStyle=orthogonalEdgeStyle;html=1;exitX=0.5;exitY=0;exitDx=0;exitDy=0;fontSize=50;endArrow=block;endFill=0;endSize=15;" edge="1" parent="1" source="21">
                    <mxGeometry relative="1" as="geometry">
                        <mxPoint x="930" y="120" as="targetPoint"/>
                    </mxGeometry>
                </mxCell>
                <mxCell id="21" value="class Element3" style="rounded=1;whiteSpace=wrap;html=1;arcSize=8;fontSize=20;verticalAlign=top;strokeColor=#000000;" vertex="1" parent="1">
                    <mxGeometry x="1040" y="220" width="160" height="100" as="geometry"/>
                </mxCell>
                <mxCell id="22" value="accept(Visitor)" style="rounded=1;whiteSpace=wrap;html=1;arcSize=8;fontSize=20;verticalAlign=top;strokeColor=#000000;" vertex="1" parent="1">
                    <mxGeometry x="1050" y="270" width="140" height="40" as="geometry"/>
                </mxCell>
                <mxCell id="23" value="visit(Element3)" style="rounded=1;whiteSpace=wrap;html=1;arcSize=8;fontSize=20;verticalAlign=top;strokeColor=#000000;" vertex="1" parent="1">
                    <mxGeometry x="330" y="370" width="140" height="40" as="geometry"/>
                </mxCell>
                <mxCell id="28" style="edgeStyle=orthogonalEdgeStyle;html=1;exitX=0.5;exitY=0;exitDx=0;exitDy=0;entryX=0.5;entryY=1;entryDx=0;entryDy=0;fontSize=20;endArrow=open;endFill=0;endSize=15;" edge="1" parent="1" source="27" target="7">
                    <mxGeometry relative="1" as="geometry"/>
                </mxCell>
                <mxCell id="27" value="visitor can overrride for different element types" style="text;html=1;strokeColor=none;fillColor=none;align=center;verticalAlign=middle;whiteSpace=wrap;rounded=0;fontSize=20;" vertex="1" parent="1">
                    <mxGeometry x="285" y="460" width="230" height="50" as="geometry"/>
                </mxCell>
                <mxCell id="41" value=".left" style="edgeStyle=orthogonalEdgeStyle;html=1;exitX=0.25;exitY=1;exitDx=0;exitDy=0;entryX=0.5;entryY=0;entryDx=0;entryDy=0;fontSize=20;endArrow=open;endFill=0;endSize=15;" edge="1" parent="1" source="38" target="39">
                    <mxGeometry relative="1" as="geometry"/>
                </mxCell>
                <mxCell id="42" value=".right" style="edgeStyle=orthogonalEdgeStyle;html=1;exitX=0.75;exitY=1;exitDx=0;exitDy=0;entryX=0.5;entryY=0;entryDx=0;entryDy=0;fontSize=20;endArrow=open;endFill=0;endSize=15;" edge="1" parent="1" source="38" target="40">
                    <mxGeometry relative="1" as="geometry"/>
                </mxCell>
                <mxCell id="38" value="A" style="rounded=1;whiteSpace=wrap;html=1;fontSize=20;strokeColor=#000000;" vertex="1" parent="1">
                    <mxGeometry x="70" y="610" width="70" height="60" as="geometry"/>
                </mxCell>
                <mxCell id="39" value="B" style="rounded=1;whiteSpace=wrap;html=1;fontSize=20;strokeColor=#000000;" vertex="1" parent="1">
                    <mxGeometry x="10" y="740" width="70" height="60" as="geometry"/>
                </mxCell>
                <mxCell id="40" value="C" style="rounded=1;whiteSpace=wrap;html=1;fontSize=20;strokeColor=#000000;" vertex="1" parent="1">
                    <mxGeometry x="120" y="740" width="70" height="60" as="geometry"/>
                </mxCell>
                <mxCell id="43" value="A.accept(visitor)" style="text;html=1;strokeColor=none;fillColor=none;align=center;verticalAlign=middle;whiteSpace=wrap;rounded=0;fontSize=20;" vertex="1" parent="1">
                    <mxGeometry x="20" y="570" width="170" height="30" as="geometry"/>
                </mxCell>
                <mxCell id="44" value=".left" style="edgeStyle=orthogonalEdgeStyle;html=1;exitX=0.25;exitY=1;exitDx=0;exitDy=0;entryX=0.5;entryY=0;entryDx=0;entryDy=0;fontSize=20;endArrow=open;endFill=0;endSize=15;" edge="1" parent="1" source="46" target="47">
                    <mxGeometry relative="1" as="geometry"/>
                </mxCell>
                <mxCell id="45" value=".right" style="edgeStyle=orthogonalEdgeStyle;html=1;exitX=0.75;exitY=1;exitDx=0;exitDy=0;entryX=0.5;entryY=0;entryDx=0;entryDy=0;fontSize=20;endArrow=open;endFill=0;endSize=15;" edge="1" parent="1" source="46" target="48">
                    <mxGeometry relative="1" as="geometry"/>
                </mxCell>
                <mxCell id="46" value="A" style="rounded=1;whiteSpace=wrap;html=1;fontSize=20;fillColor=#a20025;fontColor=#ffffff;strokeColor=#000000;" vertex="1" parent="1">
                    <mxGeometry x="285" y="610" width="70" height="60" as="geometry"/>
                </mxCell>
                <mxCell id="47" value="B" style="rounded=1;whiteSpace=wrap;html=1;fontSize=20;strokeColor=#000000;" vertex="1" parent="1">
                    <mxGeometry x="225" y="740" width="70" height="60" as="geometry"/>
                </mxCell>
                <mxCell id="48" value="C" style="rounded=1;whiteSpace=wrap;html=1;fontSize=20;strokeColor=#000000;" vertex="1" parent="1">
                    <mxGeometry x="335" y="740" width="70" height="60" as="geometry"/>
                </mxCell>
                <mxCell id="49" value="visitor.visit(A)" style="text;html=1;strokeColor=none;fillColor=none;align=center;verticalAlign=middle;whiteSpace=wrap;rounded=0;fontSize=20;" vertex="1" parent="1">
                    <mxGeometry x="240" y="540" width="170" height="30" as="geometry"/>
                </mxCell>
                <mxCell id="50" value="(Does some operation e.g print)" style="text;html=1;strokeColor=none;fillColor=none;align=center;verticalAlign=middle;whiteSpace=wrap;rounded=0;fontSize=15;" vertex="1" parent="1">
                    <mxGeometry x="210" y="570" width="220" height="30" as="geometry"/>
                </mxCell>
                <mxCell id="51" value=".left" style="edgeStyle=orthogonalEdgeStyle;html=1;exitX=0.25;exitY=1;exitDx=0;exitDy=0;entryX=0.5;entryY=0;entryDx=0;entryDy=0;fontSize=20;endArrow=open;endFill=0;endSize=15;" edge="1" parent="1" source="53" target="54">
                    <mxGeometry relative="1" as="geometry"/>
                </mxCell>
                <mxCell id="52" value=".right" style="edgeStyle=orthogonalEdgeStyle;html=1;exitX=0.75;exitY=1;exitDx=0;exitDy=0;entryX=0.5;entryY=0;entryDx=0;entryDy=0;fontSize=20;endArrow=open;endFill=0;endSize=15;" edge="1" parent="1" source="53" target="55">
                    <mxGeometry relative="1" as="geometry"/>
                </mxCell>
                <mxCell id="53" value="A" style="rounded=1;whiteSpace=wrap;html=1;fontSize=20;fillColor=#a20025;fontColor=#ffffff;strokeColor=#000000;" vertex="1" parent="1">
                    <mxGeometry x="510" y="610" width="70" height="60" as="geometry"/>
                </mxCell>
                <mxCell id="54" value="B" style="rounded=1;whiteSpace=wrap;html=1;fontSize=20;strokeColor=#000000;" vertex="1" parent="1">
                    <mxGeometry x="450" y="740" width="70" height="60" as="geometry"/>
                </mxCell>
                <mxCell id="55" value="C" style="rounded=1;whiteSpace=wrap;html=1;fontSize=20;strokeColor=#000000;" vertex="1" parent="1">
                    <mxGeometry x="560" y="740" width="70" height="60" as="geometry"/>
                </mxCell>
                <mxCell id="56" value="A.left.accept(visitor)" style="text;html=1;strokeColor=none;fillColor=none;align=center;verticalAlign=middle;whiteSpace=wrap;rounded=0;fontSize=20;" vertex="1" parent="1">
                    <mxGeometry x="450" y="570" width="170" height="30" as="geometry"/>
                </mxCell>
                <mxCell id="58" value=".left" style="edgeStyle=orthogonalEdgeStyle;html=1;exitX=0.25;exitY=1;exitDx=0;exitDy=0;entryX=0.5;entryY=0;entryDx=0;entryDy=0;fontSize=20;endArrow=open;endFill=0;endSize=15;" edge="1" parent="1" source="60" target="61">
                    <mxGeometry relative="1" as="geometry"/>
                </mxCell>
                <mxCell id="59" value=".right" style="edgeStyle=orthogonalEdgeStyle;html=1;exitX=0.75;exitY=1;exitDx=0;exitDy=0;entryX=0.5;entryY=0;entryDx=0;entryDy=0;fontSize=20;endArrow=open;endFill=0;endSize=15;" edge="1" parent="1" source="60" target="62">
                    <mxGeometry relative="1" as="geometry"/>
                </mxCell>
                <mxCell id="60" value="A" style="rounded=1;whiteSpace=wrap;html=1;fontSize=20;strokeColor=#000000;" vertex="1" parent="1">
                    <mxGeometry x="740" y="740" width="70" height="60" as="geometry"/>
                </mxCell>
                <mxCell id="61" value="B" style="rounded=1;whiteSpace=wrap;html=1;fontSize=20;fillColor=#a20025;fontColor=#ffffff;strokeColor=#000000;" vertex="1" parent="1">
                    <mxGeometry x="680" y="870" width="70" height="60" as="geometry"/>
                </mxCell>
                <mxCell id="62" value="C" style="rounded=1;whiteSpace=wrap;html=1;fontSize=20;strokeColor=#000000;" vertex="1" parent="1">
                    <mxGeometry x="790" y="870" width="70" height="60" as="geometry"/>
                </mxCell>
                <mxCell id="63" value="visitor.visit(B)" style="text;html=1;strokeColor=none;fillColor=none;align=center;verticalAlign=middle;whiteSpace=wrap;rounded=0;fontSize=20;" vertex="1" parent="1">
                    <mxGeometry x="690" y="670" width="170" height="30" as="geometry"/>
                </mxCell>
                <mxCell id="64" value="(Does some operation e.g print)" style="text;html=1;strokeColor=none;fillColor=none;align=center;verticalAlign=middle;whiteSpace=wrap;rounded=0;fontSize=15;" vertex="1" parent="1">
                    <mxGeometry x="665" y="700" width="220" height="30" as="geometry"/>
                </mxCell>
                <mxCell id="65" value=".left" style="edgeStyle=orthogonalEdgeStyle;html=1;exitX=0.25;exitY=1;exitDx=0;exitDy=0;entryX=0.5;entryY=0;entryDx=0;entryDy=0;fontSize=20;endArrow=open;endFill=0;endSize=15;" edge="1" parent="1" source="67" target="68">
                    <mxGeometry relative="1" as="geometry"/>
                </mxCell>
                <mxCell id="66" value=".right" style="edgeStyle=orthogonalEdgeStyle;html=1;exitX=0.75;exitY=1;exitDx=0;exitDy=0;entryX=0.5;entryY=0;entryDx=0;entryDy=0;fontSize=20;endArrow=open;endFill=0;endSize=15;" edge="1" parent="1" source="67" target="69">
                    <mxGeometry relative="1" as="geometry"/>
                </mxCell>
                <mxCell id="67" value="A" style="rounded=1;whiteSpace=wrap;html=1;fontSize=20;fillColor=#a20025;fontColor=#ffffff;strokeColor=#000000;" vertex="1" parent="1">
                    <mxGeometry x="960" y="610" width="70" height="60" as="geometry"/>
                </mxCell>
                <mxCell id="68" value="B" style="rounded=1;whiteSpace=wrap;html=1;fontSize=20;strokeColor=#000000;" vertex="1" parent="1">
                    <mxGeometry x="900" y="740" width="70" height="60" as="geometry"/>
                </mxCell>
                <mxCell id="69" value="C" style="rounded=1;whiteSpace=wrap;html=1;fontSize=20;strokeColor=#000000;" vertex="1" parent="1">
                    <mxGeometry x="1010" y="740" width="70" height="60" as="geometry"/>
                </mxCell>
                <mxCell id="70" value="A.right.accept(visitor)" style="text;html=1;strokeColor=none;fillColor=none;align=center;verticalAlign=middle;whiteSpace=wrap;rounded=0;fontSize=20;" vertex="1" parent="1">
                    <mxGeometry x="910" y="565" width="170" height="30" as="geometry"/>
                </mxCell>
                <mxCell id="71" value=".left" style="edgeStyle=orthogonalEdgeStyle;html=1;exitX=0.25;exitY=1;exitDx=0;exitDy=0;entryX=0.5;entryY=0;entryDx=0;entryDy=0;fontSize=20;endArrow=open;endFill=0;endSize=15;" edge="1" parent="1" source="73" target="74">
                    <mxGeometry relative="1" as="geometry"/>
                </mxCell>
                <mxCell id="72" value=".right" style="edgeStyle=orthogonalEdgeStyle;html=1;exitX=0.75;exitY=1;exitDx=0;exitDy=0;entryX=0.5;entryY=0;entryDx=0;entryDy=0;fontSize=20;endArrow=open;endFill=0;endSize=15;" edge="1" parent="1" source="73" target="75">
                    <mxGeometry relative="1" as="geometry"/>
                </mxCell>
                <mxCell id="73" value="A" style="rounded=1;whiteSpace=wrap;html=1;fontSize=20;strokeColor=#000000;" vertex="1" parent="1">
                    <mxGeometry x="1165" y="740" width="70" height="60" as="geometry"/>
                </mxCell>
                <mxCell id="74" value="B" style="rounded=1;whiteSpace=wrap;html=1;fontSize=20;strokeColor=#000000;" vertex="1" parent="1">
                    <mxGeometry x="1105" y="870" width="70" height="60" as="geometry"/>
                </mxCell>
                <mxCell id="75" value="C" style="rounded=1;whiteSpace=wrap;html=1;fontSize=20;fillColor=#a20025;fontColor=#ffffff;strokeColor=#000000;" vertex="1" parent="1">
                    <mxGeometry x="1215" y="870" width="70" height="60" as="geometry"/>
                </mxCell>
                <mxCell id="76" value="visitor.visit(C)" style="text;html=1;strokeColor=none;fillColor=none;align=center;verticalAlign=middle;whiteSpace=wrap;rounded=0;fontSize=20;" vertex="1" parent="1">
                    <mxGeometry x="1115" y="670" width="170" height="30" as="geometry"/>
                </mxCell>
                <mxCell id="77" value="(Does some operation e.g print)" style="text;html=1;strokeColor=none;fillColor=none;align=center;verticalAlign=middle;whiteSpace=wrap;rounded=0;fontSize=15;" vertex="1" parent="1">
                    <mxGeometry x="1090" y="700" width="220" height="30" as="geometry"/>
                </mxCell>
                <mxCell id="78" value="visit method does the action:&lt;br&gt;e.g runExpression(ASTNode),&lt;br&gt;printSubExpr(Expression)" style="text;html=1;strokeColor=none;fillColor=none;align=center;verticalAlign=middle;whiteSpace=wrap;rounded=0;fontSize=15;" vertex="1" parent="1">
                    <mxGeometry x="505" y="70" width="215" height="80" as="geometry"/>
                </mxCell>
                <mxCell id="79" value="" style="endArrow=open;html=1;fontSize=15;endSize=15;endFill=0;" edge="1" parent="1">
                    <mxGeometry width="50" height="50" relative="1" as="geometry">
                        <mxPoint x="170" y="639.41" as="sourcePoint"/>
                        <mxPoint x="260" y="639.41" as="targetPoint"/>
                    </mxGeometry>
                </mxCell>
                <mxCell id="80" value="" style="endArrow=open;html=1;fontSize=15;endSize=15;endFill=0;" edge="1" parent="1">
                    <mxGeometry width="50" height="50" relative="1" as="geometry">
                        <mxPoint x="400" y="639.4099999999999" as="sourcePoint"/>
                        <mxPoint x="490" y="639.4099999999999" as="targetPoint"/>
                    </mxGeometry>
                </mxCell>
                <mxCell id="81" value="" style="endArrow=open;html=1;fontSize=15;endSize=15;endFill=0;entryX=0.25;entryY=0;entryDx=0;entryDy=0;" edge="1" parent="1" target="63">
                    <mxGeometry width="50" height="50" relative="1" as="geometry">
                        <mxPoint x="600" y="639.4099999999999" as="sourcePoint"/>
                        <mxPoint x="730" y="660" as="targetPoint"/>
                        <Array as="points">
                            <mxPoint x="733" y="639"/>
                        </Array>
                    </mxGeometry>
                </mxCell>
                <mxCell id="82" value="" style="endArrow=open;html=1;fontSize=15;endSize=15;endFill=0;exitX=0.75;exitY=0;exitDx=0;exitDy=0;" edge="1" parent="1" source="63">
                    <mxGeometry width="50" height="50" relative="1" as="geometry">
                        <mxPoint x="610" y="649.4099999999999" as="sourcePoint"/>
                        <mxPoint x="940" y="640" as="targetPoint"/>
                        <Array as="points">
                            <mxPoint x="818" y="640"/>
                        </Array>
                    </mxGeometry>
                </mxCell>
                <mxCell id="83" value="" style="endArrow=open;html=1;fontSize=15;endSize=15;endFill=0;entryX=0.25;entryY=0;entryDx=0;entryDy=0;" edge="1" parent="1" target="76">
                    <mxGeometry width="50" height="50" relative="1" as="geometry">
                        <mxPoint x="1050" y="640" as="sourcePoint"/>
                        <mxPoint x="742.5" y="680" as="targetPoint"/>
                        <Array as="points">
                            <mxPoint x="1158" y="640"/>
                        </Array>
                    </mxGeometry>
                </mxCell>
            </root>
        </mxGraphModel>
    </diagram>
</mxfile>